<?xml version="1.0" encoding="UTF-8"?>
<svg width="52px" height="11px" viewBox="0 0 52 11" version="1.1" xmlns="http://www.w3.org/2000/svg" xmlns:xlink="http://www.w3.org/1999/xlink">
    <!-- Generator: Sketch 52.5 (67469) - http://www.bohemiancoding.com/sketch -->
    <title>Group 3</title>
    <desc>Created with Sketch.</desc>
    <g id="Page-1" stroke="none" stroke-width="1" fill="none" fill-rule="evenodd">
        <g id="Group-3" fill="#A2A2A2">
            <polygon id="Path" points="4.824 8.306 1.828 3.784 1.828 10 0.078 10 0.078 1.026 2.08 1.026 4.936 5.478 7.792 1.026 9.584 1.026 9.584 10 7.834 10 7.834 3.756"></polygon>
            <path d="M17.046,10 L17.046,1.026 L20.238,1.026 C22.352,1.026 23.752,2.146 23.752,3.854 C23.752,5.086 23.038,5.996 21.862,6.43 L23.948,10 L21.918,10 L20.084,6.696 L18.796,6.696 L18.796,10 L17.046,10 Z M20.378,2.566 L18.796,2.566 L18.796,5.156 L20.378,5.156 C21.302,5.156 21.904,4.638 21.904,3.854 C21.904,3.084 21.302,2.566 20.378,2.566 Z" id="Combined-Shape"></path>
            <path d="M38.41,2.062 L37.248,3.392 C36.716,2.93 36.002,2.58 35.106,2.58 C33.566,2.58 32.348,3.896 32.348,5.52 C32.348,7.13 33.566,8.446 35.218,8.446 C35.988,8.446 36.758,8.152 37.248,7.634 L38.41,8.922 C37.612,9.79 36.534,10.196 35.092,10.196 C32.474,10.196 30.486,8.096 30.486,5.52 C30.486,2.93 32.544,0.83 35.092,0.83 C36.604,0.83 37.654,1.306 38.41,2.062 Z" id="Path"></path>
            <polygon id="Path" points="45.116 10 45.116 1.026 46.866 1.026 46.866 8.348 51.248 8.348 51.248 10"></polygon>
        </g>
    </g>
</svg>