<?xml version="1.0" encoding="UTF-8"?>
<svg width="77px" height="13px" viewBox="0 0 77 13" version="1.1" xmlns="http://www.w3.org/2000/svg" xmlns:xlink="http://www.w3.org/1999/xlink">
    <!-- Generator: Sketch 52.5 (67469) - http://www.bohemiancoding.com/sketch -->
    <title>Group</title>
    <desc>Created with Sketch.</desc>
    <defs>
        <polygon id="path-1" points="0 0.047403871 13.550468 0.047403871 13.550468 11.6658813 0 11.6658813"></polygon>
        <polygon id="path-3" points="0.276598027 0.123441818 12.3383339 0.123441818 12.3383339 12.6 0.276598027 12.6"></polygon>
        <polygon id="path-5" points="0.275067402 0.0454035484 9.56943922 0.0454035484 9.56943922 11.6385939 0.275067402 11.6385939"></polygon>
    </defs>
    <g id="Page-1" stroke="none" stroke-width="1" fill="none" fill-rule="evenodd">
        <g id="Group">
            <g id="Group-9" transform="translate(0.000000, 0.900000)">
                <mask id="mask-2" fill="white">
                    <use xlink:href="#path-1"></use>
                </mask>
                <g id="Clip-8"></g>
                <polygon id="Fill-7" fill="#FEFEFE" mask="url(#mask-2)" points="6.80111159 7.18440387 3.03836938 0.047403871 -0.00019982699 0.047403871 -0.00019982699 11.6658813 2.45127768 11.6658813 2.45127768 3.81480387 5.90348875 10.4872006 7.66436419 10.4872006 11.0989905 3.81480387 11.0989905 11.6658813 13.550468 11.6658813 13.550468 0.047403871 10.5298832 0.047403871"></polygon>
            </g>
            <g id="Group-12" transform="translate(44.000000, 0.000000)">
                <mask id="mask-4" fill="white">
                    <use xlink:href="#path-3"></use>
                </mask>
                <g id="Clip-11"></g>
                <path d="M9.00737526,9.72311455 C8.40721359,9.98160545 7.81687051,10.1125691 7.23552782,10.1125691 C6.50567886,10.1125691 5.83760524,9.94151455 5.23130694,9.60207818 C4.62500865,9.26264182 4.14880676,8.80140545 3.80270125,8.21951455 C3.45618664,7.63800545 3.283543,6.99578727 3.283543,6.29324182 C3.283543,5.59069636 3.45618664,4.95076909 3.80270125,4.37460545 C4.14880676,3.79882364 4.62500865,3.34446 5.23130694,3.00998727 C5.83760524,2.67589636 6.50567886,2.50827818 7.23552782,2.50827818 C7.841417,2.50827818 8.44403332,2.64993273 9.0446041,2.93209636 C9.64476577,3.21426 10.1671969,3.60295091 10.6127157,4.09855091 L12.3195149,2.14478727 C11.6759878,1.52318727 10.8970458,1.03064182 9.98187089,0.668296364 C9.06628683,0.305187273 8.13883863,0.123441818 7.19788987,0.123441818 C5.91165381,0.123441818 4.73955894,0.394532727 3.68160524,0.935950909 C2.62406065,1.47736909 1.79193465,2.22076909 1.18604546,3.16500545 C0.579747173,4.11000545 0.276598027,5.16458727 0.276598027,6.32722364 C0.276598027,7.50284182 0.57361055,8.56849636 1.16804471,9.52418727 C1.76166065,10.4806418 2.57783142,11.2324418 3.61737526,11.7795873 C4.65610087,12.3267327 5.81264964,12.6001145 7.08702156,12.6001145 C8.02756121,12.6001145 8.9644189,12.4046236 9.89882194,12.0124964 C10.8315885,11.6211327 11.6453047,11.0907873 12.3383339,10.4233691 L10.6127157,8.67769636 C10.1426504,9.11526 9.60712782,9.46347818 9.00737526,9.72311455" id="Fill-10" fill="#FEFEFE" mask="url(#mask-4)"></path>
            </g>
            <g id="Group-15" transform="translate(67.000000, 0.900000)">
                <mask id="mask-6" fill="white">
                    <use xlink:href="#path-5"></use>
                </mask>
                <g id="Clip-14"></g>
                <polygon id="Fill-13" fill="#FEFEFE" mask="url(#mask-6)" points="3.09590956 9.37521 3.09590956 0.0454035484 0.275067402 0.0454035484 0.275067402 9.37521 0.275067402 11.5902842 0.275067402 11.6385939 9.56964681 11.6385939 9.56964681 9.37521"></polygon>
            </g>
            <path d="M26.8206579,3.08964039 L29.4272351,3.08964039 C30.2120599,3.08964039 30.8158667,3.25459507 31.2386554,3.58298411 C31.6606176,3.91137316 31.8722186,4.39901569 31.8722186,5.04553162 C31.8722186,5.70306988 31.6606176,6.20173472 31.2386554,6.54114609 C30.8158667,6.88131761 30.2120599,7.05121333 29.4272351,7.05121333 L26.8206579,7.05121333 L26.8206579,3.08964039 Z M26.8206579,9.25757723 L29.4272351,9.25757723 L29.694216,9.25757723 L31.675909,12.6 L34.8705882,12.6 L32.2111108,8.73952831 C32.9723785,8.40505799 33.5530414,7.91779554 33.9518597,7.2769808 C34.3498514,6.63616607 34.5498805,5.86460384 34.5498805,4.96191404 C34.5498805,3.66926226 34.1031213,2.669272 33.2108429,1.9615632 C32.3185644,1.25423448 31.0568108,0.9 29.4272351,0.9 L24,0.9 L24,12.6 L26.8206579,12.6 L26.8206579,9.25757723 Z" id="Fill-16" fill="#FEFEFE"></path>
        </g>
    </g>
</svg>