<?xml version="1.0" encoding="UTF-8"?>
<svg width="164px" height="13px" viewBox="0 0 164 13" version="1.1" xmlns="http://www.w3.org/2000/svg" xmlns:xlink="http://www.w3.org/1999/xlink">
    <!-- Generator: Sketch 52.5 (67469) - http://www.bohemiancoding.com/sketch -->
    <title>THE BOOKSHELF</title>
    <desc>Created with Sketch.</desc>
    <g id="Page-1" stroke="none" stroke-width="1" fill="none" fill-rule="evenodd">
        <path d="M9.342,2.568 L5.904,2.568 L5.904,12 L3.654,12 L3.654,2.568 L0.234,2.568 L0.234,0.462 L9.342,0.462 L9.342,2.568 Z M21.1062857,12 L21.1062857,7.158 L15.6162857,7.158 L15.6162857,12 L13.3662857,12 L13.3662857,0.462 L15.6162857,0.462 L15.6162857,5.052 L21.1062857,5.052 L21.1062857,0.462 L23.3742857,0.462 L23.3742857,12 L21.1062857,12 Z M28.5325713,12 L28.5325713,0.462 L36.0025713,0.462 L36.0025713,2.568 L30.7825713,2.568 L30.7825713,5.124 L35.2825713,5.124 L35.2825713,7.248 L30.7825713,7.248 L30.7825713,9.876 L36.0025713,9.876 L36.0025713,12 L28.5325713,12 Z M46.7511427,12 L46.7511427,0.462 L51.3771427,0.462 C53.5551427,0.462 55.1931427,1.794 55.1931427,3.666 C55.1931427,5.016 54.2391427,5.754 53.4651427,6.078 C54.5991427,6.42 55.5171427,7.32 55.5171427,8.76 C55.5171427,10.488 54.1491427,12 51.6471427,12 L46.7511427,12 Z M51.1611427,2.46 L49.0011427,2.46 L49.0011427,5.232 L51.1791427,5.232 C52.1511427,5.232 52.8531427,4.638 52.8531427,3.846 C52.8531427,3.036 52.1511427,2.46 51.1611427,2.46 Z M51.4311427,7.086 L49.0011427,7.086 L49.0011427,10.002 L51.4131427,10.002 C52.4211427,10.002 53.1591427,9.39 53.1591427,8.526 C53.1591427,7.698 52.4391427,7.086 51.4311427,7.086 Z M65.2654283,0.21 C68.5594283,0.21 71.2414283,2.928 71.2414283,6.24 C71.2414283,9.552 68.5594283,12.252 65.2654283,12.252 C61.9714283,12.252 59.3074283,9.552 59.3074283,6.24 C59.3074283,2.91 61.9714283,0.21 65.2654283,0.21 Z M65.2654283,10.002 C67.2454283,10.002 68.8474283,8.328 68.8474283,6.24 C68.8474283,4.152 67.2454283,2.46 65.2654283,2.46 C63.3034283,2.46 61.7014283,4.152 61.7014283,6.24 C61.7014283,8.31 63.3034283,10.002 65.2654283,10.002 Z M81.187714,0.21 C84.481714,0.21 87.163714,2.928 87.163714,6.24 C87.163714,9.552 84.481714,12.252 81.187714,12.252 C77.893714,12.252 75.229714,9.552 75.229714,6.24 C75.229714,2.91 77.893714,0.21 81.187714,0.21 Z M81.187714,10.002 C83.167714,10.002 84.769714,8.328 84.769714,6.24 C84.769714,4.152 83.167714,2.46 81.187714,2.46 C79.225714,2.46 77.623714,4.152 77.623714,6.24 C77.623714,8.31 79.225714,10.002 81.187714,10.002 Z M91.7459997,12 L91.7459997,0.462 L93.9959997,0.462 L93.9959997,5.214 L95.0939997,5.214 L98.3519997,0.462 L100.89,0.462 L97.0019997,6.132 L101.16,12 L98.4239997,12 L95.1839997,7.32 L93.9959997,7.32 L93.9959997,12 L91.7459997,12 Z M112.870285,2.154 L111.322285,3.684 C110.818285,2.964 109.810285,2.334 108.622285,2.334 C107.542285,2.334 106.912285,2.802 106.912285,3.486 C106.912285,5.538 112.978285,4.62 112.978285,8.67 C112.978285,10.758 111.214285,12.252 108.568285,12.252 C106.210285,12.252 104.824285,11.316 104.068285,10.182 L105.670285,8.688 C106.390285,9.642 107.398285,10.128 108.604285,10.128 C109.864285,10.128 110.566285,9.624 110.566285,8.796 C110.566285,6.564 104.500285,7.572 104.500285,3.558 C104.500285,1.596 106.246285,0.21 108.712285,0.21 C110.602285,0.21 112.096285,1.038 112.870285,2.154 Z M125.138571,12 L125.138571,7.158 L119.648571,7.158 L119.648571,12 L117.398571,12 L117.398571,0.462 L119.648571,0.462 L119.648571,5.052 L125.138571,5.052 L125.138571,0.462 L127.406571,0.462 L127.406571,12 L125.138571,12 Z M132.564857,12 L132.564857,0.462 L140.034857,0.462 L140.034857,2.568 L134.814857,2.568 L134.814857,5.124 L139.314857,5.124 L139.314857,7.248 L134.814857,7.248 L134.814857,9.876 L140.034857,9.876 L140.034857,12 L132.564857,12 Z M144.509142,12 L144.509142,0.462 L146.759142,0.462 L146.759142,9.876 L152.393142,9.876 L152.393142,12 L144.509142,12 Z M156.471428,12 L156.471428,0.462 L163.779428,0.462 L163.779428,2.586 L158.721428,2.586 L158.721428,5.376 L163.059428,5.376 L163.059428,7.5 L158.721428,7.5 L158.721428,12 L156.471428,12 Z" id="THE-BOOKSHELF" fill="#FFFFFF"></path>
    </g>
</svg>