<?xml version="1.0" encoding="UTF-8"?>
<svg width="84px" height="11px" viewBox="0 0 84 11" version="1.1" xmlns="http://www.w3.org/2000/svg" xmlns:xlink="http://www.w3.org/1999/xlink">
    <!-- Generator: Sketch 52.5 (67469) - http://www.bohemiancoding.com/sketch -->
    <title>Group 2</title>
    <desc>Created with Sketch.</desc>
    <g id="Page-1" stroke="none" stroke-width="1" fill="none" fill-rule="evenodd">
        <g id="Group-2" fill="#FFFFFF">
            <path d="M0.976666651,10 L0.976666651,1.026 L4.57466665,1.026 C6.26866665,1.026 7.54266665,2.062 7.54266665,3.518 C7.54266665,4.568 6.80066665,5.142 6.19866665,5.394 C7.08066665,5.66 7.79466665,6.36 7.79466665,7.48 C7.79466665,8.824 6.73066665,10 4.78466665,10 L0.976666651,10 Z M4.40666665,2.58 L2.72666665,2.58 L2.72666665,4.736 L4.42066665,4.736 C5.17666665,4.736 5.72266665,4.274 5.72266665,3.658 C5.72266665,3.028 5.17666665,2.58 4.40666665,2.58 Z M4.61666665,6.178 L2.72666665,6.178 L2.72666665,8.446 L4.60266665,8.446 C5.38666665,8.446 5.96066665,7.97 5.96066665,7.298 C5.96066665,6.654 5.40066665,6.178 4.61666665,6.178 Z" id="Combined-Shape"></path>
            <path d="M15.3766667,0.83 C17.9386667,0.83 20.0246667,2.944 20.0246667,5.52 C20.0246667,8.096 17.9386667,10.196 15.3766667,10.196 C12.8146667,10.196 10.7426667,8.096 10.7426667,5.52 C10.7426667,2.93 12.8146667,0.83 15.3766667,0.83 Z M15.3766667,8.446 C16.9166667,8.446 18.1626667,7.144 18.1626667,5.52 C18.1626667,3.896 16.9166667,2.58 15.3766667,2.58 C13.8506667,2.58 12.6046667,3.896 12.6046667,5.52 C12.6046667,7.13 13.8506667,8.446 15.3766667,8.446 Z" id="Combined-Shape"></path>
            <path d="M27.7606667,0.83 C30.3226667,0.83 32.4086667,2.944 32.4086667,5.52 C32.4086667,8.096 30.3226667,10.196 27.7606667,10.196 C25.1986667,10.196 23.1266667,8.096 23.1266667,5.52 C23.1266667,2.93 25.1986667,0.83 27.7606667,0.83 Z M27.7606667,8.446 C29.3006667,8.446 30.5466667,7.144 30.5466667,5.52 C30.5466667,3.896 29.3006667,2.58 27.7606667,2.58 C26.2346667,2.58 24.9886667,3.896 24.9886667,5.52 C24.9886667,7.13 26.2346667,8.446 27.7606667,8.446 Z" id="Combined-Shape"></path>
            <polygon id="Path" points="35.9726667 10 35.9726667 1.026 37.7226667 1.026 37.7226667 4.722 38.5766667 4.722 41.1106667 1.026 43.0846667 1.026 40.0606667 5.436 43.2946667 10 41.1666667 10 38.6466667 6.36 37.7226667 6.36 37.7226667 10"></polygon>
            <path d="M53.0466667,2.062 L51.8846667,3.392 C51.3526667,2.93 50.6386667,2.58 49.7426667,2.58 C48.2026667,2.58 46.9846667,3.896 46.9846667,5.52 C46.9846667,7.13 48.2026667,8.446 49.8546667,8.446 C50.6246667,8.446 51.3946667,8.152 51.8846667,7.634 L53.0466667,8.922 C52.2486667,9.79 51.1706667,10.196 49.7286667,10.196 C47.1106667,10.196 45.1226667,8.096 45.1226667,5.52 C45.1226667,2.93 47.1806667,0.83 49.7286667,0.83 C51.2406667,0.83 52.2906667,1.306 53.0466667,2.062 Z" id="Path"></path>
            <path d="M62.6726667,10 L61.9026667,7.984 L57.9686667,7.984 L57.1846667,10 L55.3506667,10 L58.9626667,1.026 L61.0066667,1.026 L64.6186667,10 L62.6726667,10 Z M61.3006667,6.43 L59.9286667,2.874 L58.5566667,6.43 L61.3006667,6.43 Z" id="Combined-Shape"></path>
            <path d="M73.8666667,2.342 L72.6626667,3.532 C72.2706667,2.972 71.4866667,2.482 70.5626667,2.482 C69.7226667,2.482 69.2326667,2.846 69.2326667,3.378 C69.2326667,4.974 73.9506667,4.26 73.9506667,7.41 C73.9506667,9.034 72.5786667,10.196 70.5206667,10.196 C68.6866667,10.196 67.6086667,9.468 67.0206667,8.586 L68.2666667,7.424 C68.8266667,8.166 69.6106667,8.544 70.5486667,8.544 C71.5286667,8.544 72.0746667,8.152 72.0746667,7.508 C72.0746667,5.772 67.3566667,6.556 67.3566667,3.434 C67.3566667,1.908 68.7146667,0.83 70.6326667,0.83 C72.1026667,0.83 73.2646667,1.474 73.8666667,2.342 Z" id="Path"></path>
            <polygon id="Path" points="77.3886667 10 77.3886667 1.026 83.1986667 1.026 83.1986667 2.664 79.1386667 2.664 79.1386667 4.652 82.6386667 4.652 82.6386667 6.304 79.1386667 6.304 79.1386667 8.348 83.1986667 8.348 83.1986667 10"></polygon>
        </g>
    </g>
</svg>